#!OML:ASF F:\VICON\USERDATA\INSTALL\rory3\rory3.ASF
:FULLY-SPECIFIED
:DEGREES
425
root 0.3385 15.685 31.1382 0.475235 -0.423895 1.30469
lowerback 10.7966 1.37584 -5.49947
upperback -4.90805 1.08122 0.818752
thorax -11.5698 0.971001 3.77359
lowerneck -9.70526 -6.83602 -5.25662
upperneck 20.4692 -9.68908 5.17604
head 8.47205 -4.50634 1.58265
rclavicle -2.41275e-014 3.97569e-015
rhumerus -40.3417 -16.2309 -73.958
rradius 19.2309
rwrist 11.5197
rhand -11.0061 19.9648
rfingers 7.12502
rthumb 15.0146 -9.47078
lclavicle -2.41275e-014 3.97569e-015
lhumerus -39.7973 10.5905 80.2598
lradius 19.9799
lwrist -3.25162
lhand -3.61674 19.4941
lfingers 7.12502
lthumb 22.122 48.2485
rfemur 16.6675 4.59546 24.3132
rtibia 23.1316
rfoot -7.02437 0.144011
rtoes -25.2888
lfemur -29.1751 -13.699 -21.8368
ltibia 33.4884
lfoot -3.24541 8.09737
ltoes 35.3479
426
root 0.377996 15.6822 31.2967 0.317418 -0.303783 1.48946
lowerback 10.4504 1.29218 -5.41184
upperback -4.67404 1.00048 0.748276
thorax -11.0821 0.904115 3.6668
lowerneck -8.9421 -6.62001 -5.41074
upperneck 19.3265 -9.41756 5.64037
head 7.96573 -4.37852 1.82652
rclavicle 2.79665e-014 -4.17448e-015
rhumerus -40.9458 -17.0345 -73.1955
rradius 18.6094
rwrist 12.2726
rhand -11.0529 19.9545
rfingers 7.12502
rthumb 14.9696 -9.4845
lclavicle 2.79665e-014 -4.17448e-015
lhumerus -39.3395 11.1415 79.9485
lradius 19.3863
lwrist -3.85431
lhand -3.55765 19.5693
lfingers 7.12502
lthumb 22.1787 48.317
rfemur 15.3577 3.45504 23.4212
rtibia 26.1488
rfoot -5.51736 0.972917
rtoes -24.2199
lfemur -28.7305 -13.3159 -22.5518
ltibia 34.0787
lfoot -3.31476 7.49427
ltoes 32.7424
427
root 0.413054 15.6862 31.4393 0.165894 -0.218834 1.33563
lowerback 10.9306 1.26012 -5.01406
upperback -4.92069 0.985954 0.746947
thorax -11.6363 0.887059 3.43909
lowerneck -9.66253 -6.84172 -5.2605
upperneck 20.467 -9.65286 4.96886
head 8.45081 -4.51083 1.52034
rclavicle -9.20621e-015 -7.95139e-016
rhumerus -42.3283 -17.5719 -72.2538
rradius 18.1118
rwrist 12.8363
rhand -10.9004 19.6217
rfingers 7.12502
rthumb 15.1165 -9.80632
lclavicle -9.20621e-015 -7.95139e-016
lhumerus -39.6416 11.3393 79.6151
lradius 18.8857
lwrist -4.22276
lhand -3.78639 19.5239
lfingers 7.12502
lthumb 21.9591 48.2975
rfemur 13.8554 2.55396 23.0436
rtibia 29.1398
rfoot -3.68348 1.31443
rtoes -23.2002
lfemur -28.294 -12.9269 -22.8084
ltibia 34.5607
lfoot -3.44139 6.95385
ltoes 30.3651
428
root 0.444571 15.6879 31.5712 -0.026404 -0.214125 1.29206
lowerback 10.9635 1.19684 -4.88916
upperback -4.72477 0.927729 0.796839
thorax -11.4248 0.842947 3.43565
lowerneck -9.90658 -6.85594 -5.16614
upperneck 20.5361 -9.61963 4.68328
head 8.49713 -4.50942 1.40517
rclavicle 1.05604e-014 -1.18277e-014
rhumerus -42.8046 -18.5889 -71.2354
rradius 17.2806
rwrist 14.0796
rhand -10.4894 19.9377
rfingers 7.12502
rthumb 15.5123 -9.45999
lclavicle 1.05604e-014 -1.18277e-014
lhumerus -39.3488 11.9723 79.3224
lradius 18.6292
lwrist -4.8659
lhand -3.97453 19.5036
lfingers 7.12502
lthumb 21.7784 48.2983
rfemur 12.342 1.88306 22.6128
rtibia 32.063
rfoot -1.61898 1.3533
rtoes -22.5794
lfemur -27.7343 -12.4813 -23.1526
ltibia 34.9165
lfoot -3.64986 6.47312
ltoes 28.343
429
root 0.473282 15.6952 31.7003 -0.177236 -0.298825 1.38185
lowerback 11.3075 1.17131 -4.97696
upperback -4.75329 0.865999 0.849834
thorax -11.662 0.829192 3.55491
lowerneck -9.81474 -6.80118 -5.16554
upperneck 20.5107 -9.50019 4.47703
head 8.45459 -4.4755 1.35412
rclavicle -2.09966e-015 9.93923e-015
rhumerus -43.5724 -19.4564 -70.0759
rradius 16.4319
rwrist 15.5013
rhand -10.4176 20.1723
rfingers 7.12502
rthumb 15.5814 -9.22008
lclavicle -2.09966e-015 9.93923e-015
lhumerus -39.3708 12.7582 78.889
lradius 18.3475
lwrist -5.58989
lhand -3.99614 19.4482
lfingers 7.12502
lthumb 21.7577 48.2454
rfemur 10.7425 1.5051 22.1521
rtibia 34.9693
rfoot 0.726146 1.02757
rtoes -23.6981
lfemur -27.1282 -12.0963 -23.5497
ltibia 35.0619
lfoot -4.00393 6.05528
ltoes 27.5064
430
root 0.50418 15.7067 31.8344 -0.310674 -0.491218 1.48601
lowerback 11.4936 1.18493 -5.00899
upperback -4.72873 0.871274 0.866449
thorax -11.7483 0.836588 3.58948
lowerneck -9.88497 -6.76863 -5.21508
upperneck 20.5088 -9.42424 4.3942
head 8.46105 -4.45013 1.34082
rclavicle 2.30839e-014 1.78906e-015
rhumerus -44.3658 -19.9908 -69.233
rradius 15.973
rwrist 16.2407
rhand -10.2333 20.092
rfingers 7.12502
rthumb 15.7589 -9.28647
lclavicle 2.30839e-014 1.78906e-015
lhumerus -39.162 13.2624 78.569
lradius 17.8976
lwrist -6.10046
lhand -3.7145 19.4028
lfingers 7.12502
lthumb 22.0281 48.1683
rfemur 9.13964 1.2665 21.6796
rtibia 37.8091
rfoot 3.11352 0.92758
rtoes -25.6505
lfemur -26.4374 -11.85 -23.9423
ltibia 35.0254
lfoot -4.37315 5.9161
ltoes 26.5269
431
root 0.547122 15.721 31.9853 -0.432873 -0.586045 1.9596
lowerback 11.3234 1.15811 -5.18093
upperback -4.61949 0.804834 0.736942
thorax -11.5165 0.803281 3.55986
lowerneck -9.97137 -6.73136 -5.27977
upperneck 20.5075 -9.34488 4.3429
head 8.47294 -4.42087 1.34021
rclavicle 2.40778e-014 -5.96354e-015
rhumerus -45.0966 -20.1841 -68.6287
rradius 15.7486
rwrist 16.6396
rhand -9.97003 19.8341
rfingers 7.12502
rthumb 16.0125 -9.52415
lclavicle 2.40778e-014 -5.96354e-015
lhumerus -38.8871 13.2935 78.5599
lradius 17.4991
lwrist -6.14973
lhand -3.70212 19.5264
lfingers 7.12502
lthumb 22.04 48.2905
rfemur 7.67507 0.739558 20.5657
rtibia 40.62
rfoot 5.30261 1.30731
rtoes -25.7445
lfemur -25.478 -11.9525 -24.8077
ltibia 34.7804
lfoot -4.83378 5.99284
ltoes 26.6974
432
root 0.586856 15.7297 32.1322 -0.525 -0.650228 2.35122
lowerback 11.5944 1.16759 -5.2733
upperback -4.83554 0.76866 0.615816
thorax -11.9225 0.802488 3.4855
lowerneck -9.81622 -6.70791 -5.28089
upperneck 20.7323 -9.28497 4.1262
head 8.50674 -4.41497 1.27859
rclavicle -1.82385e-014 2.5842e-015
rhumerus -46.361 -20.3428 -67.7238
rradius 15.5311
rwrist 17.277
rhand -9.54214 19.606
rfingers 7.12502
rthumb 16.4245 -9.71872
lclavicle -1.82385e-014 2.5842e-015
lhumerus -39.2074 13.4365 78.3219
lradius 17.0628
lwrist -6.76142
lhand -4.14864 19.1088
lfingers 7.12502
lthumb 21.6112 47.9228
rfemur 6.17959 0.23344 19.5647
rtibia 43.407
rfoot 7.67179 1.46075
rtoes -24.9668
lfemur -24.4813 -12.1348 -25.5545
ltibia 34.4046
lfoot -5.40052 6.11413
ltoes 27.0983
433
root 0.614294 15.7356 32.261 -0.628161 -0.915774 2.71118
lowerback 11.7143 1.21726 -5.6118
upperback -4.79788 0.770333 0.593747
thorax -11.9617 0.828598 3.65219
lowerneck -9.86953 -6.64293 -5.30477
upperneck 20.6494 -9.15438 3.99913
head 8.47657 -4.36741 1.25426
rclavicle -2.31087e-015 -1.19271e-015
rhumerus -46.9321 -20.5077 -67.0818
rradius 15.1725
rwrist 17.8454
rhand -9.09315 19.6169
rfingers 7.12502
rthumb 16.8568 -9.67145
lclavicle -2.31087e-015 -1.19271e-015
lhumerus -39.2011 13.902 78.1435
lradius 16.8823
lwrist -7.38409
lhand -4.62284 18.6395
lfingers 7.12502
lthumb 21.1558 47.5052
rfemur 4.47611 0.211018 18.845
rtibia 46.2488
rfoot 10.2731 1.03579
rtoes -23.3166
lfemur -23.4264 -11.9954 -26.1929
ltibia 33.7975
lfoot -5.86116 6.28381
ltoes 25.3797
434
root 0.641329 15.7512 32.3939 -0.640016 -1.13758 3.15781
lowerback 11.5711 1.24359 -5.99454
upperback -4.69782 0.745299 0.511335
thorax -11.7677 0.834072 3.78456
lowerneck -9.93185 -6.51899 -5.22797
upperneck 20.5746 -8.96618 3.90105
head 8.44432 -4.28175 1.22967
rclavicle -2.65378e-014 4.17448e-015
rhumerus -47.3786 -20.7625 -66.5536
rradius 14.8919
rwrist 18.5818
rhand -8.52802 19.5222
rfingers 7.12502
rthumb 17.4007 -9.71889
lclavicle -2.65378e-014 4.17448e-015
lhumerus -39.0865 14.1644 78.0717
lradius 17.0682
lwrist -7.73849
lhand -4.51058 18.6025
lfingers 7.12502
lthumb 21.2636 47.4561
rfemur 2.63753 0.142484 18.022
rtibia 49.0712
rfoot 13.1664 0.544899
rtoes -22.5668
lfemur -22.3668 -11.7859 -26.9282
ltibia 33.0786
lfoot -6.10408 6.3945
ltoes 23.9487
435
root 0.671161 15.7761 32.5331 -0.607628 -1.27645 3.82819
lowerback 11.5153 1.25386 -6.46364
upperback -4.7364 0.662992 0.313173
thorax -11.7785 0.822193 3.84993
lowerneck -9.91262 -6.38476 -5.15255
upperneck 20.5811 -8.77607 3.81973
head 8.42577 -4.19464 1.21285
rclavicle -1.51822e-014 3.18055e-015
rhumerus -47.9111 -20.4781 -66.4674
rradius 14.7314
rwrist 18.6966
rhand -8.09747 19.3432
rfingers 7.12502
rthumb 17.8151 -9.86083
lclavicle -1.51822e-014 3.18055e-015
lhumerus -39.0313 13.7357 78.2867
lradius 17.2458
lwrist -7.31506
lhand -4.49926 18.8499
lfingers 7.12502
lthumb 21.2745 47.7023
rfemur 0.806863 -0.109743 16.8776
rtibia 51.8401
rfoot 16.1971 0.0783726
rtoes -22.0175
lfemur -21.3764 -11.4231 -27.9166
ltibia 32.299
lfoot -6.19832 6.26741
ltoes 23.2512
